# xmcd
#
# Track frame offsets:
#	150
#	12438
#	23194
#	37642
#	51952
#	64324
#	74705
#	90261
#	102507
#	116321
#	128510
#	143141
#	153996
#	168070
#	180097
#	194390
#	209403
#	227401
#	238180
#
# Disc length: 3351 seconds
#
# Revision: 0
# Processed by: cddbd v1.5.2PL0 Copyright (c) Steve Scherf et al.
# Submitted via: audiograbber 1.83.01
#
DISCID=f20d1513
DTITLE=Dolly Parton - The Real... Dolly Parton CD2
DYEAR=2013
DGENRE=Country
TTITLE0=Jolene
TTITLE1=Love Is Like A Butterfly
TTITLE2=Lonely Comin' Down
TTITLE3=My Tennessee Mountain Home
TTITLE4=The Bargain Store
TTITLE5=My Blue Tears
TTITLE6=Applejack
TTITLE7=Touch Your Woman
TTITLE8=The Seeker
TTITLE9=Bobby's Arms
TTITLE10=We Used To
TTITLE11=Hey, Lucky Lady
TTITLE12=Two Doors Down
TTITLE13=Baby I'm Burnin'
TTITLE14=I Really Got The Feeling
TTITLE15=You're The Only One
TTITLE16=Starting Over Again
TTITLE17=Lovin' You
TTITLE18=Here You Come Again
EXTD=
EXTT0=
EXTT1=
EXTT2=
EXTT3=
EXTT4=
EXTT5=
EXTT6=
EXTT7=
EXTT8=
EXTT9=
EXTT10=
EXTT11=
EXTT12=
EXTT13=
EXTT14=
EXTT15=
EXTT16=
EXTT17=
EXTT18=
PLAYORDER=
